<svg width="16" height="30" viewBox="0 0 16 30" fill="none" xmlns="http://www.w3.org/2000/svg">
<path d="M10.012 29.9902H3.55635V16.5438H0V10.3684H3.55624V6.90076C3.55624 3.71726 5.54862 0 11.1661 0C13.1464 0 14.6002 0.185531 14.661 0.193525L15.257 0.270976L15.1135 6.05004L14.4567 6.04402C14.4553 6.04402 12.9795 6.03 11.3696 6.03C10.1716 6.03 10.0127 6.32559 10.0127 7.50127V10.3698H15.3003L15.0073 16.5451H10.0133V29.9902H10.012ZM4.89048 28.6557H8.67635V15.21H13.7318L13.8987 11.703H8.67635V7.49992C8.67635 6.11202 8.99602 4.69412 11.3682 4.69412C12.3214 4.69412 13.2271 4.69879 13.8097 4.70346L13.8905 1.45466C13.3012 1.40191 12.3207 1.33453 11.1646 1.33453C6.53847 1.33453 4.88975 4.20969 4.88975 6.90076V11.703H1.33362V15.21H4.88986V28.6557H4.89048Z" fill="black"/>
</svg>
