<svg width="31" height="30" viewBox="0 0 31 30" fill="none" xmlns="http://www.w3.org/2000/svg">
<path d="M5.06104 29.9902H26.272C28.6951 29.9902 30.6665 28.0195 30.6665 25.5971V4.3931C30.6665 1.97072 28.6951 0 26.272 0H5.06104C2.63786 0 0.666504 1.97072 0.666504 4.3931V25.5971C0.666504 28.0195 2.63786 29.9902 5.06104 29.9902ZM2.42432 4.3931C2.42432 2.93972 3.60718 1.75724 5.06104 1.75724H26.272C27.7258 1.75724 28.9087 2.93972 28.9087 4.3931V25.5971C28.9087 27.0505 27.7258 28.233 26.272 28.233H5.06104C3.60718 28.233 2.42432 27.0505 2.42432 25.5971V4.3931Z" fill="black"/>
<path d="M15.6665 22.9028C20.0281 22.9028 23.5767 19.3555 23.5767 14.9954C23.5767 10.6353 20.0281 7.08789 15.6665 7.08789C11.3049 7.08789 7.75635 10.6353 7.75635 14.9954C7.75635 19.3555 11.3049 22.9028 15.6665 22.9028ZM15.6665 8.84511C19.059 8.84511 21.8188 11.604 21.8188 14.9954C21.8188 18.3867 19.059 21.1456 15.6665 21.1456C12.274 21.1456 9.51416 18.3867 9.51416 14.9954C9.51416 11.604 12.274 8.84511 15.6665 8.84511Z" fill="black"/>
<path d="M24.4556 8.84375C25.9094 8.84375 27.0923 7.66144 27.0923 6.20825C27.0923 4.75507 25.9094 3.57275 24.4556 3.57275C23.0017 3.57275 21.8188 4.75507 21.8188 6.20825C21.8188 7.66144 23.0017 8.84375 24.4556 8.84375ZM24.4556 5.32975C24.9401 5.32975 25.3345 5.72393 25.3345 6.20825C25.3345 6.69257 24.9401 7.08675 24.4556 7.08675C23.971 7.08675 23.5767 6.69257 23.5767 6.20825C23.5767 5.72393 23.971 5.32975 24.4556 5.32975Z" fill="black"/>
</svg>
