<svg width="220" height="158" viewBox="0 0 220 158" fill="none" xmlns="http://www.w3.org/2000/svg">
<path d="M99.9616 89H97.237V78.418H93.7477V76.1504H103.451V78.418H99.9616V89ZM109.053 82.1973H109.949C110.787 82.1973 111.414 82.0332 111.83 81.7051C112.246 81.3711 112.454 80.8877 112.454 80.2549C112.454 79.6162 112.279 79.1445 111.927 78.8398C111.581 78.5352 111.036 78.3828 110.292 78.3828H109.053V82.1973ZM115.205 80.1582C115.205 81.541 114.772 82.5986 113.905 83.3311C113.043 84.0635 111.816 84.4297 110.222 84.4297H109.053V89H106.328V76.1504H110.433C111.991 76.1504 113.175 76.4873 113.984 77.1611C114.798 77.8291 115.205 78.8281 115.205 80.1582ZM125.931 89H118.531V76.1504H125.931V78.3828H121.256V81.2041H125.606V83.4365H121.256V86.75H125.931V89Z" fill="black"/>
<path d="M67.3991 101.15L63.4264 110.238C62.9284 111.381 62.4596 112.201 62.0202 112.699C61.5866 113.197 61.0709 113.569 60.4733 113.815C59.8756 114.056 59.1491 114.176 58.2936 114.176C57.5612 114.176 56.8786 114.088 56.2458 113.912V111.574C56.7614 111.785 57.403 111.891 58.1706 111.891C58.6569 111.891 59.0495 111.779 59.3483 111.557C59.6471 111.328 59.8961 110.936 60.0954 110.379L55.6481 101.15H58.5309L61.695 108.313H61.7829L61.9411 107.874L64.5954 101.15H67.3991ZM78.0461 101.15V103.4H72.6497V114H69.925V101.15H78.0461ZM92.5956 107.558C92.5956 109.685 92.0682 111.319 91.0135 112.462C89.9588 113.604 88.4471 114.176 86.4784 114.176C84.5096 114.176 82.9979 113.604 81.9432 112.462C80.8885 111.319 80.3612 109.679 80.3612 107.54C80.3612 105.401 80.8885 103.77 81.9432 102.645C83.0038 101.514 84.5213 100.948 86.4959 100.948C88.4706 100.948 89.9793 101.517 91.0223 102.653C92.0711 103.79 92.5956 105.425 92.5956 107.558ZM83.2176 107.558C83.2176 108.993 83.4901 110.074 84.035 110.801C84.5799 111.527 85.3944 111.891 86.4784 111.891C88.6522 111.891 89.7391 110.446 89.7391 107.558C89.7391 104.663 88.6581 103.216 86.4959 103.216C85.412 103.216 84.5946 103.582 84.0438 104.314C83.493 105.041 83.2176 106.122 83.2176 107.558ZM106.328 114H103.612V103.418H100.465L100.325 104.596C99.9614 107.59 99.6391 109.693 99.3579 110.906C99.0825 112.113 98.6782 112.963 98.145 113.455C97.6118 113.947 96.8911 114.188 95.9829 114.176C95.4907 114.176 95.0571 114.111 94.6821 113.982V111.75C95.0219 111.867 95.3413 111.926 95.6401 111.926C95.9506 111.926 96.1967 111.785 96.3784 111.504C96.56 111.217 96.7299 110.689 96.8881 109.922C97.0522 109.148 97.2661 107.886 97.5297 106.134C97.7993 104.376 98.0278 102.715 98.2153 101.15H106.328V114ZM119.523 109.983C119.523 112.661 117.754 114 114.215 114H110.471V101.15H113.195V106.081H114.268C115.943 106.081 117.238 106.421 118.152 107.101C119.066 107.78 119.523 108.741 119.523 109.983ZM113.195 111.768H114.109C115.029 111.768 115.703 111.621 116.131 111.328C116.559 111.029 116.773 110.581 116.773 109.983C116.773 109.392 116.556 108.967 116.122 108.709C115.689 108.445 114.944 108.313 113.89 108.313H113.195V111.768ZM133.396 114H130.68V108.454H125.591V114H122.867V101.15H125.591V106.187H130.68V101.15H133.396V114ZM137.548 101.15H140V107.355L139.965 109.017L139.877 110.906H139.93L145.863 101.15H149.123V114H146.698V107.83C146.698 107.004 146.75 105.779 146.856 104.156H146.785L140.826 114H137.548V101.15ZM163.743 114H160.649L155.991 107.487V114H153.266V101.15H155.991V107.373L160.597 101.15H163.497L158.812 107.32L163.743 114Z" fill="black"/>
<g filter="url(#filter0_d)">
<path d="M110 0V11.5L24 126H196L110 11.5V0L210 133H10L110 0Z" fill="black"/>
</g>
<defs>
<filter id="filter0_d" x="0" y="0" width="220" height="158" filterUnits="userSpaceOnUse" color-interpolation-filters="sRGB">
<feFlood flood-opacity="0" result="BackgroundImageFix"/>
<feColorMatrix in="SourceAlpha" type="matrix" values="0 0 0 0 0 0 0 0 0 0 0 0 0 0 0 0 0 0 127 0"/>
<feOffset dy="15"/>
<feGaussianBlur stdDeviation="5"/>
<feColorMatrix type="matrix" values="0 0 0 0 0 0 0 0 0 0 0 0 0 0 0 0 0 0 0.35 0"/>
<feBlend mode="normal" in2="BackgroundImageFix" result="effect1_dropShadow"/>
<feBlend mode="normal" in="SourceGraphic" in2="effect1_dropShadow" result="shape"/>
</filter>
</defs>
</svg>
