<svg width="38" height="22" viewBox="0 0 38 22" fill="none" xmlns="http://www.w3.org/2000/svg">
<path d="M36.0025 16.7758C35.1944 15.8075 34.2813 14.9431 33.3983 14.107C33.088 13.8131 32.767 13.5093 32.4578 13.2076C32.4578 13.2075 32.4577 13.2074 32.4576 13.2073C32.0418 12.8019 31.8383 12.5141 31.817 12.3016C31.7961 12.0927 31.9389 11.7827 32.2674 11.3245C32.7586 10.6354 33.2822 9.94506 33.7887 9.27753C34.2389 8.68414 34.7043 8.0705 35.1505 7.45339L35.2506 7.31483C36.121 6.11049 37.021 4.86516 37.5032 3.34758C37.641 2.91248 37.784 2.26859 37.439 1.70335C37.0939 1.13795 36.4541 0.970381 36.0032 0.893632C35.7829 0.85591 35.5739 0.85279 35.3795 0.85279L29.7334 0.847785C28.7573 0.831536 28.0801 1.29406 27.711 2.22289C27.4157 2.96471 27.0669 3.8244 26.6628 4.63992C25.8896 6.2143 24.9071 8.02763 23.4831 9.53846L23.4198 9.60578C23.3229 9.70923 23.1645 9.8784 23.0831 9.91721C22.9288 9.82029 22.7508 9.266 22.759 8.97561C22.7592 8.96843 22.7593 8.96132 22.7593 8.95421L22.7542 2.43247C22.7542 2.39931 22.7519 2.36616 22.7475 2.3333C22.6209 1.40288 22.374 0.470131 20.9009 0.179528C20.8537 0.17017 20.8056 0.165527 20.7576 0.165527H14.8845C13.7796 0.165527 13.1951 0.671363 12.7266 1.21978C12.5909 1.37966 12.2306 1.80418 12.4142 2.32314C12.5999 2.84828 13.1535 2.9531 13.3352 2.98748C13.9752 3.10892 14.3062 3.47054 14.4086 4.16187C14.6112 5.50513 14.636 6.94211 14.4869 8.68189C14.4453 9.14899 14.3679 9.50401 14.2431 9.79925C14.2086 9.88101 14.1782 9.93164 14.1571 9.96146C14.1232 9.94782 14.0706 9.9217 13.9978 9.87187C13.548 9.56422 13.2091 9.08595 12.8813 8.62356C11.5721 6.7757 10.4708 4.7348 9.51417 2.38335C9.12021 1.41978 8.37961 0.88159 7.43016 0.867662C5.62125 0.837557 3.94826 0.838282 2.31728 0.869983C1.54801 0.883331 1.00856 1.1254 0.713653 1.5896C0.418385 2.05467 0.429197 2.64762 0.745872 3.3523C3.00962 8.38454 5.06511 12.0453 7.41043 15.2222C9.0618 17.4588 10.7241 19.0114 12.6418 20.1082C14.6567 21.2605 16.929 21.8253 19.5651 21.8252C19.8649 21.8252 20.1699 21.8179 20.479 21.8031C22.1054 21.7291 22.7671 21.0824 22.8393 19.4988C22.8798 18.6619 22.973 17.984 23.2962 17.3949C23.3867 17.23 23.4887 17.1195 23.5691 17.0992C23.6546 17.0779 23.8062 17.1302 23.9747 17.2397C24.2829 17.4397 24.5483 17.711 24.7665 17.9492C24.9877 18.1913 25.2112 18.4413 25.4275 18.6831C25.8878 19.1979 26.3637 19.7303 26.8624 20.2381C27.9903 21.3875 29.2905 21.9146 30.7285 21.8042L35.8956 21.8066C35.8957 21.8066 35.8958 21.8066 35.8958 21.8066C35.9122 21.8066 35.9286 21.806 35.945 21.805C36.541 21.7653 37.0563 21.4354 37.3589 20.8998C37.7233 20.2547 37.7177 19.4377 37.3439 18.7134C36.9538 17.9603 36.4476 17.3121 36.0025 16.7758ZM36.0701 20.1723C35.9988 20.2984 35.9109 20.3214 35.8656 20.3269L30.6997 20.3245C30.6995 20.3245 30.6994 20.3245 30.6991 20.3245C30.6788 20.3245 30.6584 20.3253 30.6381 20.3271C29.6204 20.4118 28.7553 20.0542 27.9188 19.2018C27.4443 18.7185 26.98 18.1993 26.5311 17.6972C26.3123 17.4525 26.0861 17.1994 25.8588 16.9507C25.577 16.643 25.2286 16.2894 24.7809 15.9988C24.1107 15.5639 23.5553 15.577 23.2075 15.6646C22.8633 15.7513 22.3741 15.9987 21.9985 16.6838C21.5121 17.5702 21.4047 18.5264 21.3611 19.4298C21.3358 19.9823 21.2423 20.1282 21.2033 20.1653C21.1521 20.2139 20.9812 20.2993 20.4107 20.3254C17.6695 20.4542 15.369 19.9635 13.3769 18.8241C11.6439 17.8328 10.1264 16.4091 8.60144 14.3437C6.32107 11.255 4.31464 7.67805 2.09595 2.74592C2.01555 2.56725 1.99073 2.45575 1.98355 2.39605C2.04015 2.37748 2.15074 2.35303 2.34463 2.34948C3.95907 2.31821 5.61458 2.31734 7.40716 2.34723C7.65258 2.35086 7.93203 2.42449 8.14363 2.94207C9.14314 5.399 10.2977 7.53717 11.6736 9.47898C12.0389 9.99439 12.4936 10.636 13.1618 11.093C13.7739 11.512 14.2706 11.492 14.5796 11.4015C14.8887 11.3109 15.3177 11.0592 15.6067 10.3752C15.7931 9.9344 15.9058 9.43799 15.9616 8.81079C16.121 6.94987 16.0927 5.4027 15.8727 3.94337C15.7176 2.89782 15.1776 2.14252 14.3269 1.75681C14.478 1.67817 14.6482 1.64538 14.8847 1.64538H20.681C21.0071 1.71851 21.0717 1.8044 21.0938 1.83378C21.1877 1.95862 21.2414 2.25394 21.2742 2.4847L21.2791 8.9463C21.2661 9.56574 21.5672 10.9395 22.5926 11.3163C22.601 11.3194 22.6095 11.3223 22.618 11.325C23.5514 11.63 24.1689 10.9712 24.5004 10.6173L24.5595 10.5545C26.1193 8.89944 27.1697 6.96562 27.9903 5.29461C28.418 4.43172 28.7803 3.53917 29.0866 2.76979C29.2399 2.38393 29.3793 2.32039 29.7121 2.32742C29.7167 2.32757 29.7212 2.32757 29.7258 2.32757L35.379 2.33258C35.5105 2.33258 35.6477 2.3341 35.7542 2.35231C36.0236 2.39815 36.1345 2.45401 36.1711 2.47715C36.1749 2.52002 36.174 2.64335 36.0926 2.90072C35.6825 4.19117 34.89 5.28757 34.0511 6.44839L33.9509 6.58716C33.515 7.19013 33.0547 7.7968 32.6096 8.3836C32.0966 9.05976 31.5663 9.75885 31.0635 10.4644C29.9885 11.9638 30.083 12.9587 31.4245 14.2668C31.7415 14.5762 32.0665 14.8839 32.3808 15.1815C33.272 16.0254 34.1139 16.8224 34.8651 17.7224C35.2584 18.1964 35.7043 18.7656 36.0292 19.3929C36.1987 19.7213 36.1572 20.018 36.0701 20.1723Z" fill="black"/>
</svg>
